<?xml version="1.0" encoding="UTF-8" standalone="yes"?>
<svg xmlns="http://www.w3.org/2000/svg" xmlns:xlink="http://www.w3.org/1999/xlink" width="76.553pt" height="76.553pt" version="1.1" viewBox="221.569 930.910 76.553 76.553">
  <!--
	Exported with Concepts: Smarter Sketching
	Version: 2463 on iOS 17.1
	https://concepts.app/
	-->
  <title>3B73FE45-5287-4D41-A37C-224BEC7C919D</title>
  <desc>Drawing exported from Concepts: Smarter Sketching</desc>
  <defs></defs>
  <g id="Fill" opacity="1.000">
    <path id="STROKE_704ac76e-b02c-4f74-bd94-302bb5647e80" opacity="1.000" fill="#000000" stroke="#000000" stroke-width="1.000" stroke-opacity="1.000" stroke-linecap="round" stroke-linejoin="round" d="M 296.980 968.767 Q 296.985 969.187 296.980 969.606 Q 296.975 970.026 296.961 970.445 Q 296.947 970.865 296.923 971.284 Q 296.900 971.703 296.866 972.121 Q 296.833 972.540 296.791 972.957 Q 296.748 973.375 296.696 973.791 Q 296.644 974.208 296.583 974.623 Q 296.521 975.038 296.450 975.452 Q 296.379 975.865 296.299 976.277 Q 296.219 976.689 296.130 977.099 Q 296.040 977.509 295.942 977.917 Q 295.843 978.325 295.735 978.731 Q 295.627 979.136 295.510 979.539 Q 295.393 979.943 295.267 980.343 Q 295.141 980.743 295.006 981.141 Q 294.871 981.538 294.727 981.932 Q 294.583 982.326 294.430 982.717 Q 294.277 983.108 294.115 983.495 Q 293.954 983.883 293.783 984.266 Q 293.613 984.650 293.434 985.029 Q 293.255 985.409 293.067 985.784 Q 292.880 986.160 292.684 986.531 Q 292.488 986.902 292.283 987.269 Q 292.079 987.635 291.866 987.997 Q 291.654 988.359 291.433 988.716 Q 291.212 989.073 290.984 989.425 Q 290.755 989.777 290.518 990.123 Q 290.282 990.470 290.037 990.811 Q 289.793 991.152 289.541 991.488 Q 289.289 991.823 289.029 992.153 Q 288.770 992.483 288.503 992.807 Q 288.236 993.131 287.962 993.449 Q 287.688 993.766 287.406 994.078 Q 287.125 994.389 286.837 994.694 Q 286.548 994.999 286.253 995.298 Q 285.958 995.596 285.656 995.888 Q 285.355 996.180 285.046 996.464 Q 284.738 996.749 284.424 997.027 Q 284.109 997.305 283.788 997.575 Q 283.467 997.846 283.140 998.109 Q 282.814 998.372 282.481 998.628 Q 282.148 998.884 281.810 999.132 Q 281.471 999.380 281.127 999.621 Q 280.783 999.862 280.434 1000.094 Q 280.085 1000.327 279.730 1000.552 Q 279.376 1000.776 279.016 1000.993 Q 278.657 1001.210 278.293 1001.418 Q 277.928 1001.627 277.560 1001.827 Q 277.191 1002.027 276.817 1002.219 Q 276.444 1002.411 276.067 1002.594 Q 275.689 1002.777 275.307 1002.952 Q 274.926 1003.127 274.540 1003.293 Q 274.155 1003.459 273.766 1003.616 Q 273.377 1003.773 272.984 1003.922 Q 272.592 1004.070 272.196 1004.210 Q 271.800 1004.350 271.401 1004.480 Q 271.002 1004.611 270.601 1004.732 Q 270.199 1004.854 269.795 1004.966 Q 269.390 1005.079 268.983 1005.182 Q 268.577 1005.285 268.168 1005.379 Q 267.759 1005.473 267.348 1005.558 Q 266.937 1005.643 266.524 1005.718 Q 266.111 1005.794 265.696 1005.860 Q 265.282 1005.926 264.866 1005.983 Q 264.450 1006.040 264.033 1006.087 Q 263.616 1006.134 263.198 1006.172 Q 262.780 1006.210 262.362 1006.239 Q 261.943 1006.267 261.523 1006.286 Q 261.104 1006.305 260.685 1006.314 Q 260.265 1006.324 259.845 1006.324 Q 259.426 1006.324 259.006 1006.314 Q 258.586 1006.305 258.167 1006.286 Q 257.748 1006.267 257.329 1006.239 Q 256.910 1006.210 256.493 1006.172 Q 256.075 1006.134 255.658 1006.087 Q 255.241 1006.040 254.825 1005.983 Q 254.409 1005.926 253.994 1005.860 Q 253.580 1005.794 253.167 1005.719 Q 252.754 1005.643 252.343 1005.558 Q 251.932 1005.473 251.523 1005.379 Q 251.114 1005.285 250.707 1005.182 Q 250.301 1005.079 249.896 1004.966 Q 249.492 1004.854 249.090 1004.732 Q 248.688 1004.611 248.290 1004.480 Q 247.891 1004.350 247.495 1004.210 Q 247.099 1004.070 246.707 1003.922 Q 246.314 1003.773 245.925 1003.616 Q 245.536 1003.459 245.150 1003.293 Q 244.765 1003.127 244.383 1002.952 Q 244.002 1002.777 243.624 1002.594 Q 243.247 1002.411 242.873 1002.219 Q 242.500 1002.027 242.131 1001.827 Q 241.762 1001.627 241.398 1001.418 Q 241.034 1001.210 240.674 1000.993 Q 240.315 1000.776 239.960 1000.552 Q 239.606 1000.327 239.257 1000.094 Q 238.907 999.862 238.563 999.621 Q 238.219 999.381 237.881 999.132 Q 237.543 998.884 237.210 998.628 Q 236.877 998.372 236.550 998.109 Q 236.223 997.846 235.903 997.575 Q 235.582 997.305 235.267 997.027 Q 234.953 996.749 234.644 996.464 Q 234.336 996.180 234.034 995.888 Q 233.732 995.596 233.437 995.298 Q 233.142 994.999 232.854 994.694 Q 232.566 994.389 232.284 994.078 Q 232.003 993.766 231.729 993.449 Q 231.455 993.131 231.188 992.807 Q 230.921 992.483 230.661 992.153 Q 230.402 991.824 230.150 991.488 Q 229.898 991.152 229.653 990.811 Q 229.409 990.470 229.172 990.123 Q 228.936 989.777 228.707 989.425 Q 228.478 989.073 228.258 988.716 Q 228.037 988.359 227.824 987.997 Q 227.612 987.635 227.407 987.269 Q 227.203 986.902 227.007 986.531 Q 226.811 986.160 226.623 985.784 Q 226.436 985.409 226.257 985.029 Q 226.078 984.650 225.907 984.266 Q 225.737 983.883 225.575 983.495 Q 225.414 983.108 225.261 982.717 Q 225.108 982.326 224.964 981.932 Q 224.820 981.538 224.685 981.141 Q 224.549 980.743 224.423 980.343 Q 224.297 979.943 224.180 979.540 Q 224.063 979.137 223.955 978.731 Q 223.848 978.325 223.749 977.917 Q 223.650 977.509 223.561 977.099 Q 223.471 976.689 223.391 976.277 Q 223.311 975.865 223.240 975.452 Q 223.170 975.038 223.108 974.623 Q 223.047 974.208 222.995 973.791 Q 222.943 973.375 222.900 972.957 Q 222.857 972.540 222.824 972.121 Q 222.791 971.703 222.767 971.284 Q 222.744 970.865 222.729 970.445 Q 222.715 970.026 222.710 969.606 Q 222.706 969.187 222.710 968.767 Q 222.715 968.347 222.729 967.928 Q 222.744 967.508 222.767 967.089 Q 222.791 966.670 222.824 966.252 Q 222.857 965.834 222.900 965.416 Q 222.943 964.999 222.995 964.582 Q 223.047 964.166 223.108 963.750 Q 223.170 963.335 223.240 962.922 Q 223.311 962.508 223.391 962.096 Q 223.471 961.684 223.561 961.274 Q 223.650 960.864 223.749 960.456 Q 223.848 960.048 223.955 959.642 Q 224.063 959.237 224.180 958.834 Q 224.297 958.431 224.423 958.030 Q 224.549 957.630 224.685 957.233 Q 224.820 956.835 224.964 956.441 Q 225.108 956.047 225.261 955.656 Q 225.414 955.265 225.575 954.878 Q 225.737 954.491 225.907 954.107 Q 226.078 953.724 226.257 953.344 Q 226.436 952.964 226.623 952.589 Q 226.811 952.214 227.007 951.842 Q 227.203 951.471 227.407 951.105 Q 227.612 950.738 227.824 950.376 Q 228.037 950.014 228.258 949.657 Q 228.478 949.300 228.707 948.948 Q 228.936 948.597 229.172 948.250 Q 229.409 947.903 229.653 947.562 Q 229.898 947.221 230.150 946.885 Q 230.402 946.550 230.661 946.220 Q 230.921 945.890 231.188 945.566 Q 231.455 945.242 231.729 944.925 Q 232.003 944.607 232.284 944.295 Q 232.566 943.984 232.854 943.679 Q 233.142 943.374 233.437 943.075 Q 233.732 942.777 234.034 942.485 Q 234.336 942.194 234.644 941.909 Q 234.952 941.624 235.267 941.346 Q 235.582 941.068 235.903 940.798 Q 236.223 940.527 236.550 940.264 Q 236.877 940.001 237.210 939.745 Q 237.543 939.489 237.881 939.241 Q 238.219 938.993 238.563 938.752 Q 238.907 938.512 239.257 938.279 Q 239.606 938.046 239.960 937.822 Q 240.315 937.597 240.674 937.380 Q 241.034 937.164 241.398 936.955 Q 241.762 936.747 242.131 936.546 Q 242.500 936.346 242.873 936.154 Q 243.247 935.963 243.624 935.779 Q 244.002 935.596 244.383 935.421 Q 244.765 935.246 245.150 935.080 Q 245.536 934.914 245.925 934.757 Q 246.314 934.600 246.707 934.451 Q 247.099 934.303 247.495 934.163 Q 247.891 934.024 248.290 933.893 Q 248.688 933.762 249.090 933.641 Q 249.492 933.519 249.896 933.407 Q 250.301 933.294 250.707 933.191 Q 251.114 933.088 251.523 932.994 Q 251.932 932.900 252.343 932.815 Q 252.754 932.730 253.167 932.655 Q 253.580 932.579 253.994 932.513 Q 254.409 932.447 254.825 932.390 Q 255.241 932.334 255.658 932.286 Q 256.075 932.239 256.493 932.201 Q 256.911 932.163 257.329 932.135 Q 257.748 932.106 258.167 932.087 Q 258.587 932.068 259.006 932.059 Q 259.426 932.049 259.846 932.049 Q 260.265 932.049 260.685 932.059 Q 261.104 932.068 261.524 932.087 Q 261.943 932.106 262.362 932.135 Q 262.780 932.163 263.198 932.201 Q 263.616 932.239 264.033 932.286 Q 264.450 932.334 264.866 932.390 Q 265.282 932.447 265.697 932.513 Q 266.111 932.579 266.524 932.655 Q 266.937 932.730 267.348 932.815 Q 267.759 932.900 268.168 932.994 Q 268.577 933.088 268.984 933.191 Q 269.390 933.295 269.795 933.407 Q 270.199 933.519 270.601 933.641 Q 271.003 933.763 271.401 933.893 Q 271.800 934.024 272.196 934.163 Q 272.592 934.303 272.984 934.451 Q 273.377 934.600 273.766 934.757 Q 274.155 934.914 274.541 935.081 Q 274.926 935.247 275.308 935.421 Q 275.689 935.596 276.067 935.779 Q 276.444 935.963 276.818 936.155 Q 277.191 936.346 277.560 936.547 Q 277.929 936.747 278.293 936.955 Q 278.657 937.164 279.017 937.380 Q 279.376 937.597 279.731 937.822 Q 280.085 938.047 280.434 938.279 Q 280.784 938.512 281.128 938.752 Q 281.472 938.993 281.810 939.241 Q 282.148 939.489 282.481 939.745 Q 282.814 940.001 283.141 940.264 Q 283.468 940.528 283.788 940.798 Q 284.109 941.069 284.424 941.346 Q 284.738 941.624 285.047 941.909 Q 285.355 942.194 285.657 942.486 Q 285.959 942.777 286.254 943.076 Q 286.549 943.374 286.837 943.679 Q 287.125 943.984 287.407 944.296 Q 287.688 944.607 287.962 944.925 Q 288.236 945.243 288.503 945.567 Q 288.770 945.891 289.030 946.220 Q 289.289 946.550 289.541 946.886 Q 289.793 947.221 290.038 947.562 Q 290.282 947.904 290.519 948.250 Q 290.755 948.597 290.984 948.949 Q 291.213 949.301 291.433 949.658 Q 291.654 950.015 291.867 950.377 Q 292.079 950.739 292.284 951.105 Q 292.488 951.472 292.684 951.843 Q 292.880 952.214 293.067 952.589 Q 293.255 952.965 293.434 953.345 Q 293.613 953.724 293.784 954.108 Q 293.954 954.491 294.116 954.879 Q 294.277 955.266 294.430 955.657 Q 294.583 956.048 294.727 956.442 Q 294.871 956.836 295.006 957.233 Q 295.141 957.631 295.267 958.031 Q 295.394 958.431 295.510 958.834 Q 295.628 959.237 295.735 959.643 Q 295.843 960.049 295.942 960.457 Q 296.041 960.865 296.130 961.275 Q 296.219 961.685 296.299 962.097 Q 296.380 962.509 296.450 962.922 Q 296.521 963.336 296.583 963.751 Q 296.644 964.166 296.696 964.583 Q 296.748 964.999 296.791 965.417 Q 296.833 965.834 296.867 966.253 Q 296.900 966.671 296.923 967.090 Q 296.947 967.509 296.961 967.929 Q 296.975 968.348 296.980 968.767 Z"></path>
  </g>
  <g id="Pen" opacity="1.000">
    <path id="STROKE_027ae9fb-1e68-42a3-8a7e-79b3ac03f1c8" opacity="1.000" fill="none" stroke="#ecf0d6" stroke-width="2.493" stroke-opacity="1.000" stroke-linecap="round" stroke-linejoin="round" d="M 241.664 971.221 Q 241.821 971.145 242.295 971.033 Q 242.770 970.922 243.045 970.967 Q 243.321 971.012 243.443 971.073 Q 243.565 971.134 243.751 971.414 Q 243.936 971.695 243.905 972.094 Q 243.873 972.492 243.758 972.591 Q 243.643 972.690 243.328 972.746 Q 243.013 972.803 242.837 972.761 Q 242.662 972.719 242.573 972.690 Q 242.484 972.661 242.071 972.229 Q 241.659 971.797 241.502 971.130 Q 241.345 970.464 241.365 969.841 Q 241.384 969.218 241.746 968.618 Q 242.108 968.018 242.404 967.895 Q 242.701 967.772 243.115 967.861 Q 243.529 967.951 243.901 968.576 Q 244.273 969.201 244.338 969.888 Q 244.403 970.576 244.281 971.012 Q 244.160 971.449 243.689 971.891 Q 243.219 972.334 242.694 972.511 Q 242.168 972.687 241.800 972.653 Q 241.431 972.619 241.089 972.219 Q 240.747 971.820 240.594 971.126 Q 240.440 970.432 240.532 969.825 Q 240.623 969.217 241.059 968.641 Q 241.495 968.064 242.021 967.848 Q 242.546 967.633 242.974 967.646 Q 243.402 967.660 243.741 967.792 Q 244.080 967.925 244.406 968.390 Q 244.732 968.854 244.809 969.481 Q 244.886 970.108 244.812 970.522 Q 244.737 970.937 244.289 971.437 Q 243.841 971.938 243.445 972.058 Q 243.048 972.178 242.843 972.173 Q 242.638 972.168 242.434 972.078 Q 242.231 971.988 242.026 971.401 Q 241.821 970.813 241.880 970.113 Q 241.940 969.412 242.248 968.862 Q 242.557 968.312 242.850 968.030 Q 243.143 967.747 243.684 967.641 Q 244.225 967.534 244.498 967.814 Q 244.772 968.095 244.876 968.764 Q 244.981 969.433 244.844 969.928 Q 244.706 970.423 244.313 970.846 Q 243.920 971.269 243.532 971.404 Q 243.143 971.538 242.913 971.512 Q 242.682 971.485 242.647 971.479 Q 242.611 971.473 242.391 971.123 Q 242.170 970.773 242.161 970.240 Q 242.153 969.707 242.412 969.120 Q 242.671 968.533 242.909 968.293 Q 243.147 968.052 243.325 967.969 Q 243.503 967.886 243.638 967.869 Q 243.773 967.852 243.863 967.879 Q 243.952 967.905 243.988 967.918 Q 244.023 967.931 244.173 968.290 Q 244.324 968.650 244.253 969.127 Q 244.183 969.605 243.978 969.957 Q 243.774 970.310 243.603 970.478 Q 243.432 970.646 243.338 970.682 Q 243.245 970.718 243.119 970.600 "></path>
    <path id="STROKE_186a195a-1be3-4e4e-b01c-9387dd3f9c93" opacity="1.000" fill="none" stroke="#ecf0d6" stroke-width="2.493" stroke-opacity="1.000" stroke-linecap="round" stroke-linejoin="round" d="M 276.954 959.423 L 276.933 958.793 Q 276.948 958.766 277.141 958.863 Q 277.334 958.961 277.657 959.515 Q 277.981 960.069 278.047 960.493 Q 278.112 960.917 278.065 961.184 Q 278.018 961.451 277.964 961.537 Q 277.910 961.623 277.701 961.717 Q 277.493 961.810 277.301 961.774 Q 277.109 961.739 276.882 961.562 Q 276.654 961.386 276.469 961.069 Q 276.284 960.752 276.167 960.432 Q 276.051 960.111 275.986 959.554 Q 275.921 958.997 275.988 958.739 Q 276.054 958.482 276.118 958.364 Q 276.182 958.247 276.301 958.144 Q 276.419 958.040 276.554 957.974 Q 276.689 957.908 276.755 957.895 Q 276.822 957.883 277.006 957.867 Q 277.190 957.851 277.514 957.981 Q 277.838 958.111 278.134 958.571 Q 278.431 959.030 278.522 959.608 Q 278.614 960.185 278.539 960.600 Q 278.464 961.015 278.172 961.319 Q 277.879 961.624 277.360 961.687 Q 276.840 961.750 276.492 961.401 Q 276.145 961.052 275.968 960.252 Q 275.792 959.452 275.867 958.878 Q 275.942 958.304 276.299 958.000 Q 276.657 957.696 276.918 957.670 Q 277.178 957.644 277.486 957.804 Q 277.793 957.963 278.106 958.423 Q 278.418 958.883 278.595 959.464 Q 278.772 960.045 278.787 960.656 Q 278.802 961.266 278.587 961.614 Q 278.373 961.962 277.875 962.115 Q 277.376 962.267 276.944 962.186 Q 276.512 962.105 276.191 961.607 Q 275.871 961.110 275.776 960.461 Q 275.681 959.812 275.748 959.421 Q 275.815 959.030 276.140 958.670 Q 276.464 958.310 276.694 958.280 Q 276.924 958.251 277.060 958.258 Q 277.196 958.265 277.575 958.644 Q 277.954 959.022 278.140 959.802 Q 278.326 960.581 278.324 961.140 Q 278.321 961.699 278.083 962.159 Q 277.846 962.618 277.626 962.702 Q 277.407 962.786 277.200 962.755 Q 276.993 962.724 276.731 962.283 Q 276.469 961.842 276.361 961.221 Q 276.253 960.600 276.289 959.965 Q 276.324 959.330 276.438 959.154 Q 276.552 958.978 276.809 958.849 Q 277.065 958.721 277.453 958.949 Q 277.841 959.178 278.194 959.869 Q 278.547 960.560 278.669 961.199 Q 278.791 961.839 278.734 962.221 Q 278.678 962.602 278.496 962.839 Q 278.314 963.075 278.082 963.220 Q 277.851 963.365 277.758 963.417 Q 277.665 963.469 277.300 963.528 Q 276.936 963.587 276.688 963.577 Q 276.439 963.567 275.977 963.245 Q 275.515 962.923 275.224 962.352 Q 274.933 961.780 274.859 961.245 Q 274.785 960.710 274.858 960.329 Q 274.932 959.949 275.182 959.711 Q 275.432 959.473 275.897 959.402 Q 276.362 959.331 276.675 959.401 Q 276.988 959.472 277.367 959.791 Q 277.747 960.109 277.999 960.757 Q 278.251 961.405 278.260 961.738 Q 278.268 962.071 278.192 962.347 Q 278.117 962.624 277.936 962.742 Q 277.756 962.860 277.508 962.807 Q 277.260 962.755 276.994 962.279 Q 276.728 961.803 276.629 961.369 Q 276.530 960.935 276.545 960.593 Q 276.561 960.251 276.649 960.070 Q 276.738 959.890 276.935 959.854 Q 277.133 959.817 277.409 959.951 Q 277.685 960.084 277.861 960.411 Q 278.037 960.738 278.078 961.144 Q 278.120 961.550 277.995 961.954 Q 277.870 962.357 277.529 962.569 Q 277.188 962.780 276.924 962.788 Q 276.660 962.796 276.507 962.700 Q 276.355 962.604 276.189 962.438 Q 276.024 962.272 275.728 961.454 Q 275.432 960.637 275.451 960.062 Q 275.470 959.486 275.599 959.197 Q 275.729 958.908 276.066 958.834 Q 276.403 958.760 276.662 958.878 Q 276.920 958.997 277.337 959.618 Q 277.754 960.239 277.856 960.958 Q 277.958 961.677 277.895 962.116 Q 277.832 962.555 277.656 962.809 Q 277.480 963.062 277.292 963.195 Q 277.103 963.328 276.824 963.406 Q 276.545 963.483 276.163 963.381 Q 275.781 963.279 275.448 962.735 Q 275.115 962.192 274.965 961.464 Q 274.815 960.737 274.867 960.159 Q 274.920 959.582 275.120 959.250 Q 275.320 958.919 275.577 958.717 Q 275.834 958.516 276.136 958.459 Q 276.439 958.401 276.650 958.432 Q 276.862 958.464 277.196 958.651 Q 277.530 958.839 277.918 959.376 Q 278.305 959.912 278.479 960.350 Q 278.652 960.788 278.735 961.434 Q 278.818 962.080 278.728 962.442 Q 278.637 962.805 278.227 963.035 Q 277.817 963.265 277.444 963.290 Q 277.071 963.316 276.642 963.094 Q 276.212 962.872 275.890 962.494 Q 275.568 962.116 275.312 961.541 Q 275.057 960.965 275.005 960.484 Q 274.953 960.004 275.036 959.712 Q 275.120 959.420 275.444 959.137 Q 275.769 958.855 276.162 958.775 Q 276.555 958.695 277.015 958.825 Q 277.475 958.955 278.128 959.708 Q 278.781 960.462 278.964 961.084 Q 279.146 961.706 279.145 961.957 Q 279.144 962.208 279.046 962.502 Q 278.948 962.796 278.493 962.966 Q 278.037 963.136 277.646 963.125 Q 277.255 963.114 277.012 962.986 Q 276.769 962.858 276.422 962.270 "></path>
    <path id="STROKE_e5855062-6c41-4b15-994b-9d82251c94e7" opacity="1.000" fill="none" stroke="#f45e58" stroke-width="2.493" stroke-opacity="1.000" stroke-linecap="round" stroke-linejoin="round" d="M 273.464 949.693 L 273.596 949.765 Q 273.901 949.658 273.914 949.625 Q 274.304 949.363 275.476 947.527 Q 276.648 945.690 277.321 942.275 Q 277.220 942.520 277.233 944.443 Q 277.247 946.365 277.314 947.509 Q 277.381 948.654 277.253 949.211 Q 277.126 949.768 276.740 950.192 Q 276.353 950.615 274.502 950.816 Q 273.925 950.380 277.333 945.960 Q 277.413 946.015 277.233 946.923 Q 277.052 947.830 276.357 948.397 Q 276.314 948.439 276.193 947.772 Q 276.071 947.105 276.358 946.293 Q 276.645 945.481 277.201 945.263 L 277.280 945.525 Q 277.341 945.828 275.329 949.238 Q 275.318 949.233 275.795 948.589 "></path>
    <path id="STROKE_fcbf21c0-6c72-4dfb-bb16-a0dc31c943aa" opacity="1.000" fill="none" stroke="#f45e58" stroke-width="2.493" stroke-opacity="1.000" stroke-linecap="round" stroke-linejoin="round" d="M 248.264 958.402 Q 248.235 958.394 247.486 958.441 Q 246.737 958.487 246.009 958.291 Q 245.280 958.095 244.263 957.313 Q 243.246 956.531 242.610 954.385 Q 242.652 954.382 243.268 955.000 Q 243.885 955.618 244.990 956.442 Q 246.096 957.267 246.827 957.490 Q 247.559 957.713 247.854 957.663 Q 248.149 957.613 248.278 957.471 Q 248.406 957.329 248.405 957.292 Q 248.405 957.255 248.416 957.209 Q 248.428 957.163 248.363 956.890 Q 248.298 956.616 247.927 956.337 Q 247.556 956.058 246.605 955.756 Q 245.654 955.454 244.537 955.567 Q 244.519 955.686 244.533 955.758 Q 244.547 955.830 245.330 956.393 Q 246.114 956.956 246.780 957.227 Q 247.445 957.498 247.943 957.526 Q 247.991 957.438 246.248 955.900 Q 246.313 955.914 247.676 956.350 "></path>
    <path id="STROKE_1632b2d5-1404-4273-8aca-78754eff94f1" opacity="1.000" fill="none" stroke="#f45e58" stroke-width="2.493" stroke-opacity="1.000" stroke-linecap="round" stroke-linejoin="round" d="M 259.727 989.245 Q 259.802 989.219 261.049 989.170 Q 262.296 989.120 263.032 989.093 Q 263.767 989.065 265.152 988.328 Q 266.537 987.591 269.986 983.531 "></path>
  </g>
</svg>